<?xml version="1.0" encoding="UTF-8"?>
<svg width="640" viewBox="0 0 4096 4096" xmlns="http://www.w3.org/2000/svg">
  <rect width="4096" height="4096" x="0" y="0" fill="black" />
  <rect name="323" width="405" height="405" x="0" y="0" shape-rendering="crispEdges" style="fill: hsl(255, 100%, 50%);" />
  <rect name="322" width="400" height="400" x="405" y="0" shape-rendering="crispEdges" style="fill: hsl(329, 100%, 50%);" />
  <rect name="321" width="400" height="400" x="805" y="0" shape-rendering="crispEdges" style="fill: hsl(244, 100%, 50%);" />
  <rect name="320" width="400" height="400" x="1205" y="0" shape-rendering="crispEdges" style="fill: hsl(259, 100%, 50%);" />
  <rect name="319" width="400" height="400" x="1605" y="0" shape-rendering="crispEdges" style="fill: hsl(6, 100%, 50%);" />
  <rect name="307" width="360" height="360" x="2005" y="0" shape-rendering="crispEdges" style="fill: hsl(231, 100%, 50%);" />
  <rect name="317" width="360" height="360" x="2365" y="0" shape-rendering="crispEdges" style="fill: hsl(14, 100%, 50%);" />
  <rect name="316" width="360" height="360" x="2725" y="0" shape-rendering="crispEdges" style="fill: hsl(121, 100%, 50%);" />
  <rect name="315" width="360" height="360" x="3085" y="0" shape-rendering="crispEdges" style="fill: hsl(121, 100%, 50%);" />
  <rect name="314" width="360" height="360" x="3445" y="0" shape-rendering="crispEdges" style="fill: hsl(89, 100%, 50%);" />
  <rect name="313" width="360" height="360" x="0" y="405" shape-rendering="crispEdges" style="fill: hsl(159, 100%, 50%);" />
  <rect name="312" width="360" height="360" x="360" y="405" shape-rendering="crispEdges" style="fill: hsl(58, 100%, 50%);" />
  <rect name="311" width="360" height="360" x="720" y="405" shape-rendering="crispEdges" style="fill: hsl(272, 100%, 50%);" />
  <rect name="310" width="360" height="360" x="1080" y="405" shape-rendering="crispEdges" style="fill: hsl(312, 100%, 50%);" />
  <rect name="309" width="360" height="360" x="1440" y="405" shape-rendering="crispEdges" style="fill: hsl(291, 100%, 50%);" />
  <rect name="308" width="360" height="360" x="1800" y="405" shape-rendering="crispEdges" style="fill: hsl(254, 100%, 50%);" />
  <rect name="306" width="360" height="360" x="2160" y="405" shape-rendering="crispEdges" style="fill: hsl(217, 100%, 50%);" />
  <rect name="304" width="346" height="346" x="2520" y="405" shape-rendering="crispEdges" style="fill: hsl(125, 100%, 50%);" />
  <rect name="305" width="346" height="346" x="2866" y="405" shape-rendering="crispEdges" style="fill: hsl(8, 100%, 50%);" />
  <rect name="107" width="300" height="300" x="3212" y="405" shape-rendering="crispEdges" style="fill: hsl(13, 100%, 50%);" />
  <rect name="20" width="300" height="300" x="3512" y="405" shape-rendering="crispEdges" style="fill: hsl(203, 100%, 50%);" />
  <rect name="21" width="300" height="300" x="0" y="765" shape-rendering="crispEdges" style="fill: hsl(55, 100%, 50%);" />
  <rect name="22" width="300" height="300" x="300" y="765" shape-rendering="crispEdges" style="fill: hsl(150, 100%, 50%);" />
  <rect name="23" width="300" height="300" x="600" y="765" shape-rendering="crispEdges" style="fill: hsl(141, 100%, 50%);" />
  <rect name="24" width="300" height="300" x="900" y="765" shape-rendering="crispEdges" style="fill: hsl(156, 100%, 50%);" />
  <rect name="25" width="300" height="300" x="1200" y="765" shape-rendering="crispEdges" style="fill: hsl(170, 100%, 50%);" />
  <rect name="26" width="300" height="300" x="1500" y="765" shape-rendering="crispEdges" style="fill: hsl(217, 100%, 50%);" />
  <rect name="27" width="300" height="300" x="1800" y="765" shape-rendering="crispEdges" style="fill: hsl(256, 100%, 50%);" />
  <rect name="28" width="300" height="300" x="2100" y="765" shape-rendering="crispEdges" style="fill: hsl(244, 100%, 50%);" />
  <rect name="29" width="300" height="300" x="2400" y="765" shape-rendering="crispEdges" style="fill: hsl(42, 100%, 50%);" />
  <rect name="30" width="300" height="300" x="2700" y="765" shape-rendering="crispEdges" style="fill: hsl(70, 100%, 50%);" />
  <rect name="31" width="300" height="300" x="3000" y="765" shape-rendering="crispEdges" style="fill: hsl(270, 100%, 50%);" />
  <rect name="32" width="300" height="300" x="3300" y="765" shape-rendering="crispEdges" style="fill: hsl(8, 100%, 50%);" />
  <rect name="33" width="300" height="300" x="3600" y="765" shape-rendering="crispEdges" style="fill: hsl(286, 100%, 50%);" />
  <rect name="34" width="300" height="300" x="0" y="1065" shape-rendering="crispEdges" style="fill: hsl(32, 100%, 50%);" />
  <rect name="35" width="300" height="300" x="300" y="1065" shape-rendering="crispEdges" style="fill: hsl(188, 100%, 50%);" />
  <rect name="36" width="300" height="300" x="600" y="1065" shape-rendering="crispEdges" style="fill: hsl(176, 100%, 50%);" />
  <rect name="37" width="300" height="300" x="900" y="1065" shape-rendering="crispEdges" style="fill: hsl(304, 100%, 50%);" />
  <rect name="38" width="300" height="300" x="1200" y="1065" shape-rendering="crispEdges" style="fill: hsl(292, 100%, 50%);" />
  <rect name="39" width="300" height="300" x="1500" y="1065" shape-rendering="crispEdges" style="fill: hsl(269, 100%, 50%);" />
  <rect name="40" width="300" height="300" x="1800" y="1065" shape-rendering="crispEdges" style="fill: hsl(128, 100%, 50%);" />
  <rect name="41" width="300" height="300" x="2100" y="1065" shape-rendering="crispEdges" style="fill: hsl(346, 100%, 50%);" />
  <rect name="42" width="300" height="300" x="2400" y="1065" shape-rendering="crispEdges" style="fill: hsl(96, 100%, 50%);" />
  <rect name="43" width="300" height="300" x="2700" y="1065" shape-rendering="crispEdges" style="fill: hsl(174, 100%, 50%);" />
  <rect name="44" width="300" height="300" x="3000" y="1065" shape-rendering="crispEdges" style="fill: hsl(164, 100%, 50%);" />
  <rect name="45" width="300" height="300" x="3300" y="1065" shape-rendering="crispEdges" style="fill: hsl(113, 100%, 50%);" />
  <rect name="46" width="300" height="300" x="3600" y="1065" shape-rendering="crispEdges" style="fill: hsl(258, 100%, 50%);" />
  <rect name="47" width="300" height="300" x="0" y="1365" shape-rendering="crispEdges" style="fill: hsl(130, 100%, 50%);" />
  <rect name="48" width="300" height="300" x="300" y="1365" shape-rendering="crispEdges" style="fill: hsl(358, 100%, 50%);" />
  <rect name="49" width="300" height="300" x="600" y="1365" shape-rendering="crispEdges" style="fill: hsl(268, 100%, 50%);" />
  <rect name="50" width="300" height="300" x="900" y="1365" shape-rendering="crispEdges" style="fill: hsl(250, 100%, 50%);" />
  <rect name="51" width="300" height="300" x="1200" y="1365" shape-rendering="crispEdges" style="fill: hsl(227, 100%, 50%);" />
  <rect name="52" width="300" height="300" x="1500" y="1365" shape-rendering="crispEdges" style="fill: hsl(12, 100%, 50%);" />
  <rect name="53" width="300" height="300" x="1800" y="1365" shape-rendering="crispEdges" style="fill: hsl(127, 100%, 50%);" />
  <rect name="54" width="300" height="300" x="2100" y="1365" shape-rendering="crispEdges" style="fill: hsl(187, 100%, 50%);" />
  <rect name="55" width="300" height="300" x="2400" y="1365" shape-rendering="crispEdges" style="fill: hsl(349, 100%, 50%);" />
  <rect name="56" width="300" height="300" x="2700" y="1365" shape-rendering="crispEdges" style="fill: hsl(239, 100%, 50%);" />
  <rect name="57" width="300" height="300" x="3000" y="1365" shape-rendering="crispEdges" style="fill: hsl(343, 100%, 50%);" />
  <rect name="58" width="300" height="300" x="3300" y="1365" shape-rendering="crispEdges" style="fill: hsl(273, 100%, 50%);" />
  <rect name="59" width="300" height="300" x="3600" y="1365" shape-rendering="crispEdges" style="fill: hsl(118, 100%, 50%);" />
  <rect name="60" width="300" height="300" x="0" y="1665" shape-rendering="crispEdges" style="fill: hsl(289, 100%, 50%);" />
  <rect name="61" width="300" height="300" x="300" y="1665" shape-rendering="crispEdges" style="fill: hsl(269, 100%, 50%);" />
  <rect name="62" width="300" height="300" x="600" y="1665" shape-rendering="crispEdges" style="fill: hsl(300, 100%, 50%);" />
  <rect name="63" width="300" height="300" x="900" y="1665" shape-rendering="crispEdges" style="fill: hsl(241, 100%, 50%);" />
  <rect name="64" width="300" height="300" x="1200" y="1665" shape-rendering="crispEdges" style="fill: hsl(211, 100%, 50%);" />
  <rect name="65" width="300" height="300" x="1500" y="1665" shape-rendering="crispEdges" style="fill: hsl(321, 100%, 50%);" />
  <rect name="66" width="300" height="300" x="1800" y="1665" shape-rendering="crispEdges" style="fill: hsl(39, 100%, 50%);" />
  <rect name="67" width="300" height="300" x="2100" y="1665" shape-rendering="crispEdges" style="fill: hsl(357, 100%, 50%);" />
  <rect name="68" width="300" height="300" x="2400" y="1665" shape-rendering="crispEdges" style="fill: hsl(20, 100%, 50%);" />
  <rect name="69" width="300" height="300" x="2700" y="1665" shape-rendering="crispEdges" style="fill: hsl(297, 100%, 50%);" />
  <rect name="70" width="300" height="300" x="3000" y="1665" shape-rendering="crispEdges" style="fill: hsl(29, 100%, 50%);" />
  <rect name="71" width="300" height="300" x="3300" y="1665" shape-rendering="crispEdges" style="fill: hsl(160, 100%, 50%);" />
  <rect name="72" width="300" height="300" x="3600" y="1665" shape-rendering="crispEdges" style="fill: hsl(208, 100%, 50%);" />
  <rect name="73" width="300" height="300" x="0" y="1965" shape-rendering="crispEdges" style="fill: hsl(295, 100%, 50%);" />
  <rect name="74" width="300" height="300" x="300" y="1965" shape-rendering="crispEdges" style="fill: hsl(147, 100%, 50%);" />
  <rect name="75" width="300" height="300" x="600" y="1965" shape-rendering="crispEdges" style="fill: hsl(103, 100%, 50%);" />
  <rect name="76" width="300" height="300" x="900" y="1965" shape-rendering="crispEdges" style="fill: hsl(11, 100%, 50%);" />
  <rect name="77" width="300" height="300" x="1200" y="1965" shape-rendering="crispEdges" style="fill: hsl(161, 100%, 50%);" />
  <rect name="78" width="300" height="300" x="1500" y="1965" shape-rendering="crispEdges" style="fill: hsl(80, 100%, 50%);" />
  <rect name="79" width="300" height="300" x="1800" y="1965" shape-rendering="crispEdges" style="fill: hsl(187, 100%, 50%);" />
  <rect name="80" width="300" height="300" x="2100" y="1965" shape-rendering="crispEdges" style="fill: hsl(302, 100%, 50%);" />
  <rect name="81" width="300" height="300" x="2400" y="1965" shape-rendering="crispEdges" style="fill: hsl(43, 100%, 50%);" />
  <rect name="82" width="300" height="300" x="2700" y="1965" shape-rendering="crispEdges" style="fill: hsl(313, 100%, 50%);" />
  <rect name="83" width="300" height="300" x="3000" y="1965" shape-rendering="crispEdges" style="fill: hsl(27, 100%, 50%);" />
  <rect name="84" width="300" height="300" x="3300" y="1965" shape-rendering="crispEdges" style="fill: hsl(286, 100%, 50%);" />
  <rect name="85" width="300" height="300" x="3600" y="1965" shape-rendering="crispEdges" style="fill: hsl(22, 100%, 50%);" />
  <rect name="86" width="300" height="300" x="0" y="2265" shape-rendering="crispEdges" style="fill: hsl(45, 100%, 50%);" />
  <rect name="87" width="300" height="300" x="300" y="2265" shape-rendering="crispEdges" style="fill: hsl(161, 100%, 50%);" />
  <rect name="88" width="300" height="300" x="600" y="2265" shape-rendering="crispEdges" style="fill: hsl(12, 100%, 50%);" />
  <rect name="89" width="300" height="300" x="900" y="2265" shape-rendering="crispEdges" style="fill: hsl(129, 100%, 50%);" />
  <rect name="90" width="300" height="300" x="1200" y="2265" shape-rendering="crispEdges" style="fill: hsl(254, 100%, 50%);" />
  <rect name="91" width="300" height="300" x="1500" y="2265" shape-rendering="crispEdges" style="fill: hsl(144, 100%, 50%);" />
  <rect name="92" width="300" height="300" x="1800" y="2265" shape-rendering="crispEdges" style="fill: hsl(216, 100%, 50%);" />
  <rect name="93" width="300" height="300" x="2100" y="2265" shape-rendering="crispEdges" style="fill: hsl(147, 100%, 50%);" />
  <rect name="94" width="300" height="300" x="2400" y="2265" shape-rendering="crispEdges" style="fill: hsl(106, 100%, 50%);" />
  <rect name="95" width="300" height="300" x="2700" y="2265" shape-rendering="crispEdges" style="fill: hsl(45, 100%, 50%);" />
  <rect name="96" width="300" height="300" x="3000" y="2265" shape-rendering="crispEdges" style="fill: hsl(308, 100%, 50%);" />
  <rect name="97" width="300" height="300" x="3300" y="2265" shape-rendering="crispEdges" style="fill: hsl(337, 100%, 50%);" />
  <rect name="98" width="300" height="300" x="3600" y="2265" shape-rendering="crispEdges" style="fill: hsl(43, 100%, 50%);" />
  <rect name="99" width="300" height="300" x="0" y="2565" shape-rendering="crispEdges" style="fill: hsl(91, 100%, 50%);" />
  <rect name="100" width="300" height="300" x="300" y="2565" shape-rendering="crispEdges" style="fill: hsl(168, 100%, 50%);" />
  <rect name="101" width="300" height="300" x="600" y="2565" shape-rendering="crispEdges" style="fill: hsl(311, 100%, 50%);" />
  <rect name="102" width="300" height="300" x="900" y="2565" shape-rendering="crispEdges" style="fill: hsl(219, 100%, 50%);" />
  <rect name="103" width="300" height="300" x="1200" y="2565" shape-rendering="crispEdges" style="fill: hsl(256, 100%, 50%);" />
  <rect name="104" width="300" height="300" x="1500" y="2565" shape-rendering="crispEdges" style="fill: hsl(168, 100%, 50%);" />
  <rect name="105" width="300" height="300" x="1800" y="2565" shape-rendering="crispEdges" style="fill: hsl(24, 100%, 50%);" />
  <rect name="106" width="300" height="300" x="2100" y="2565" shape-rendering="crispEdges" style="fill: hsl(53, 100%, 50%);" />
  <rect name="14" width="300" height="300" x="2400" y="2565" shape-rendering="crispEdges" style="fill: hsl(214, 100%, 50%);" />
  <rect name="108" width="300" height="300" x="2700" y="2565" shape-rendering="crispEdges" style="fill: hsl(263, 100%, 50%);" />
  <rect name="109" width="300" height="300" x="3000" y="2565" shape-rendering="crispEdges" style="fill: hsl(351, 100%, 50%);" />
  <rect name="110" width="300" height="300" x="3300" y="2565" shape-rendering="crispEdges" style="fill: hsl(315, 100%, 50%);" />
  <rect name="111" width="300" height="300" x="3600" y="2565" shape-rendering="crispEdges" style="fill: hsl(83, 100%, 50%);" />
  <rect name="112" width="300" height="300" x="0" y="2865" shape-rendering="crispEdges" style="fill: hsl(223, 100%, 50%);" />
  <rect name="113" width="300" height="300" x="300" y="2865" shape-rendering="crispEdges" style="fill: hsl(137, 100%, 50%);" />
  <rect name="114" width="300" height="300" x="600" y="2865" shape-rendering="crispEdges" style="fill: hsl(65, 100%, 50%);" />
  <rect name="115" width="300" height="300" x="900" y="2865" shape-rendering="crispEdges" style="fill: hsl(186, 100%, 50%);" />
  <rect name="116" width="300" height="300" x="1200" y="2865" shape-rendering="crispEdges" style="fill: hsl(261, 100%, 50%);" />
  <rect name="117" width="300" height="300" x="1500" y="2865" shape-rendering="crispEdges" style="fill: hsl(192, 100%, 50%);" />
  <rect name="118" width="300" height="300" x="1800" y="2865" shape-rendering="crispEdges" style="fill: hsl(146, 100%, 50%);" />
  <rect name="119" width="300" height="300" x="2100" y="2865" shape-rendering="crispEdges" style="fill: hsl(18, 100%, 50%);" />
  <rect name="120" width="300" height="300" x="2400" y="2865" shape-rendering="crispEdges" style="fill: hsl(214, 100%, 50%);" />
  <rect name="121" width="300" height="300" x="2700" y="2865" shape-rendering="crispEdges" style="fill: hsl(26, 100%, 50%);" />
  <rect name="122" width="300" height="300" x="3000" y="2865" shape-rendering="crispEdges" style="fill: hsl(11, 100%, 50%);" />
  <rect name="123" width="300" height="300" x="3300" y="2865" shape-rendering="crispEdges" style="fill: hsl(69, 100%, 50%);" />
  <rect name="124" width="300" height="300" x="3600" y="2865" shape-rendering="crispEdges" style="fill: hsl(75, 100%, 50%);" />
  <rect name="125" width="300" height="300" x="0" y="3165" shape-rendering="crispEdges" style="fill: hsl(140, 100%, 50%);" />
  <rect name="126" width="300" height="300" x="300" y="3165" shape-rendering="crispEdges" style="fill: hsl(170, 100%, 50%);" />
  <rect name="127" width="300" height="300" x="600" y="3165" shape-rendering="crispEdges" style="fill: hsl(331, 100%, 50%);" />
  <rect name="128" width="300" height="300" x="900" y="3165" shape-rendering="crispEdges" style="fill: hsl(233, 100%, 50%);" />
  <rect name="129" width="300" height="300" x="1200" y="3165" shape-rendering="crispEdges" style="fill: hsl(189, 100%, 50%);" />
  <rect name="130" width="300" height="300" x="1500" y="3165" shape-rendering="crispEdges" style="fill: hsl(236, 100%, 50%);" />
  <rect name="131" width="300" height="300" x="1800" y="3165" shape-rendering="crispEdges" style="fill: hsl(308, 100%, 50%);" />
  <rect name="132" width="300" height="300" x="2100" y="3165" shape-rendering="crispEdges" style="fill: hsl(20, 100%, 50%);" />
  <rect name="133" width="300" height="300" x="2400" y="3165" shape-rendering="crispEdges" style="fill: hsl(222, 100%, 50%);" />
  <rect name="134" width="300" height="300" x="2700" y="3165" shape-rendering="crispEdges" style="fill: hsl(221, 100%, 50%);" />
  <rect name="135" width="300" height="300" x="3000" y="3165" shape-rendering="crispEdges" style="fill: hsl(137, 100%, 50%);" />
  <rect name="136" width="300" height="300" x="3300" y="3165" shape-rendering="crispEdges" style="fill: hsl(234, 100%, 50%);" />
  <rect name="137" width="300" height="300" x="3600" y="3165" shape-rendering="crispEdges" style="fill: hsl(313, 100%, 50%);" />
  <rect name="138" width="300" height="300" x="0" y="3465" shape-rendering="crispEdges" style="fill: hsl(17, 100%, 50%);" />
  <rect name="139" width="300" height="300" x="300" y="3465" shape-rendering="crispEdges" style="fill: hsl(312, 100%, 50%);" />
  <rect name="140" width="300" height="300" x="600" y="3465" shape-rendering="crispEdges" style="fill: hsl(101, 100%, 50%);" />
  <rect name="141" width="300" height="300" x="900" y="3465" shape-rendering="crispEdges" style="fill: hsl(88, 100%, 50%);" />
  <rect name="142" width="300" height="300" x="1200" y="3465" shape-rendering="crispEdges" style="fill: hsl(1, 100%, 50%);" />
  <rect name="143" width="300" height="300" x="1500" y="3465" shape-rendering="crispEdges" style="fill: hsl(216, 100%, 50%);" />
  <rect name="144" width="300" height="300" x="1800" y="3465" shape-rendering="crispEdges" style="fill: hsl(106, 100%, 50%);" />
  <rect name="145" width="300" height="300" x="2100" y="3465" shape-rendering="crispEdges" style="fill: hsl(307, 100%, 50%);" />
  <rect name="146" width="300" height="300" x="2400" y="3465" shape-rendering="crispEdges" style="fill: hsl(211, 100%, 50%);" />
  <rect name="147" width="300" height="300" x="2700" y="3465" shape-rendering="crispEdges" style="fill: hsl(189, 100%, 50%);" />
  <rect name="148" width="300" height="300" x="3000" y="3465" shape-rendering="crispEdges" style="fill: hsl(1, 100%, 50%);" />
  <rect name="149" width="300" height="300" x="3300" y="3465" shape-rendering="crispEdges" style="fill: hsl(300, 100%, 50%);" />
  <rect name="150" width="300" height="300" x="3600" y="3465" shape-rendering="crispEdges" style="fill: hsl(283, 100%, 50%);" />
  <rect name="151" width="300" height="300" x="0" y="3765" shape-rendering="crispEdges" style="fill: hsl(212, 100%, 50%);" />
  <rect name="152" width="300" height="300" x="300" y="3765" shape-rendering="crispEdges" style="fill: hsl(349, 100%, 50%);" />
  <rect name="153" width="300" height="300" x="600" y="3765" shape-rendering="crispEdges" style="fill: hsl(10, 100%, 50%);" />
  <rect name="154" width="300" height="300" x="900" y="3765" shape-rendering="crispEdges" style="fill: hsl(86, 100%, 50%);" />
  <rect name="155" width="300" height="300" x="1200" y="3765" shape-rendering="crispEdges" style="fill: hsl(314, 100%, 50%);" />
  <rect name="156" width="300" height="300" x="1500" y="3765" shape-rendering="crispEdges" style="fill: hsl(62, 100%, 50%);" />
  <rect name="157" width="300" height="300" x="1800" y="3765" shape-rendering="crispEdges" style="fill: hsl(57, 100%, 50%);" />
  <rect name="158" width="300" height="300" x="2100" y="3765" shape-rendering="crispEdges" style="fill: hsl(140, 100%, 50%);" />
  <rect name="159" width="300" height="300" x="2400" y="3765" shape-rendering="crispEdges" style="fill: hsl(91, 100%, 50%);" />
  <rect name="160" width="300" height="300" x="2700" y="3765" shape-rendering="crispEdges" style="fill: hsl(222, 100%, 50%);" />
  <rect name="161" width="300" height="300" x="3000" y="3765" shape-rendering="crispEdges" style="fill: hsl(166, 100%, 50%);" />
  <rect name="162" width="300" height="300" x="3300" y="3765" shape-rendering="crispEdges" style="fill: hsl(86, 100%, 50%);" />
  <rect name="163" width="300" height="300" x="3600" y="3765" shape-rendering="crispEdges" style="fill: hsl(170, 100%, 50%);" />
  <rect name="12" width="230" height="230" x="3812" y="405" shape-rendering="crispEdges" style="fill: hsl(317, 100%, 50%);" />
  <rect name="11" width="230" height="230" x="3805" y="0" shape-rendering="crispEdges" style="fill: hsl(88, 100%, 50%);" />
  <rect name="1" width="160" height="160" x="3900" y="765" shape-rendering="crispEdges" style="fill: hsl(82, 100%, 50%);" />
  <rect name="0" width="160" height="160" x="3900" y="1065" shape-rendering="crispEdges" style="fill: hsl(70, 100%, 50%);" />
</svg>
